<svg width="120" height="120" viewBox="0 0 120 120" fill="none" xmlns="http://www.w3.org/2000/svg">
<g clip-path="url(#clip0_445_339)">
<path d="M59.99 0C26.83 0 1.33524e-05 26.835 1.33524e-05 60C-0.00524577 67.8808 1.54311 75.6853 4.55653 82.9672C7.56995 90.2491 11.9893 96.8656 17.5619 102.438C23.1344 108.011 29.7509 112.43 37.0328 115.443C44.3147 118.457 52.1192 120.005 60 120C93.165 120 120 93.165 120 60C119.995 26.835 92.94 0 59.99 0ZM31.85 72.875C33.81 75.49 36.43 76.585 40.135 76.585C41.885 76.585 43.63 76.365 45.155 75.71C46.685 75.06 48.43 74.18 50.605 72.875L56.72 81.6C51.705 85.75 46.03 87.71 39.485 87.71C34.245 87.71 29.885 86.62 25.96 84.44C22.1496 82.1922 19.1068 78.8461 17.23 74.84C15.27 70.69 14.175 65.89 14.175 60.215C14.175 54.765 15.27 49.745 17.225 45.6C19.0917 41.4706 22.131 37.9809 25.965 35.565C29.67 33.165 34.25 32.075 39.27 32.075C42.765 32.075 46.035 32.51 48.655 33.6C51.5944 34.7378 54.3222 36.3603 56.725 38.4L50.615 46.69C49.0639 45.5448 47.38 44.5912 45.6 43.85C44.075 43.2 42.11 42.98 40.36 42.98C32.945 42.98 29.235 48.65 29.235 60.21C29.02 66.11 30.11 70.25 31.855 72.87L31.85 72.875ZM91.85 86.4C89.67 93.165 86.395 98.185 81.81 101.89C77.23 105.605 71.12 107.565 63.485 108.22L61.96 97.97C66.975 97.31 70.685 96.22 73.085 94.47C73.955 93.82 75.705 91.855 75.705 91.855L57.595 33.82H72.645L83.12 77.235L94.25 33.82H108.865L91.85 86.4Z" fill="white"/>
</g>
<defs>
<clipPath id="clip0_445_339">
<rect width="120" height="120" fill="white"/>
</clipPath>
</defs>
</svg>
