<svg width="120" height="120" viewBox="0 0 120 120" fill="none" xmlns="http://www.w3.org/2000/svg">
<path d="M111.87 62.625L88.0425 102.814C87.5984 103.515 86.9767 104.087 86.2405 104.471C85.5042 104.855 84.6795 105.037 83.85 105H36.1763C35.3446 105.032 34.5191 104.845 33.783 104.457C33.0469 104.068 32.4263 103.492 31.9838 102.787L8.14875 62.6625C7.72413 61.9394 7.50026 61.1161 7.50026 60.2775C7.50026 59.4389 7.72413 58.6156 8.14875 57.8925L31.9763 17.535C32.4025 16.7897 33.012 16.1657 33.747 15.722C34.482 15.2784 35.3182 15.0298 36.1763 15H83.835C84.6925 15.0319 85.5276 15.2821 86.2613 15.7271C86.995 16.172 87.6029 16.7969 88.0275 17.5425L111.855 57.99C112.277 58.6908 112.5 59.4933 112.5 60.3112C112.5 61.1292 112.277 61.9317 111.855 62.6325L111.87 62.625ZM92.1375 78.375V42.3225L60 24.2475L27.9 42.3225V78.375L60 96.4463L92.1375 78.375Z" fill="#4B32C3"/>
<path d="M81.7575 71.955L60.2062 84.0862L38.6737 71.955V47.6925L60.2062 35.5575L81.7575 47.6925V71.955Z" fill="#8080F2"/>
</svg>
