<svg width="120" height="120" viewBox="0 0 120 120" fill="none" xmlns="http://www.w3.org/2000/svg">
<g clip-path="url(#clip0_445_299)">
<path d="M119.965 0H0.0351562C0.01574 0 0 0.01574 0 0.0351562V119.965C0 119.984 0.01574 120 0.0351562 120H119.965C119.984 120 120 119.984 120 119.965V0.0351562C120 0.01574 119.984 0 119.965 0Z" fill="#F7DF1E"/>
<path d="M75.9375 86.7188C78.2812 90.7031 81.5625 93.5156 86.9531 93.5156C91.6406 93.5156 94.6875 91.1719 94.6875 87.8906C94.6875 84.1406 91.6406 82.7344 86.4844 80.3906L83.6719 79.2188C75.4688 75.7031 70.0781 71.4844 70.0781 62.3438C70.0781 53.9062 76.4062 47.3438 86.4844 47.3438C93.75 47.3438 98.9062 49.9219 102.422 56.4844L93.75 62.1094C91.875 58.5938 89.7656 57.1875 86.4844 57.1875C83.2031 57.1875 81.0938 59.2969 81.0938 62.1094C81.0938 65.3906 83.2031 66.7969 88.125 68.9062L90.9375 70.0781C100.547 74.2969 105.938 78.2812 105.938 87.8906C105.938 97.9688 97.9688 103.594 87.1875 103.594C76.6406 103.594 69.8438 98.6719 66.5625 92.1094L75.9375 86.7188ZM36.0938 87.6562C37.9688 90.7031 39.375 93.5156 43.3594 93.5156C47.1094 93.5156 49.4531 92.1094 49.4531 86.4844V47.5781H60.7031V86.0156C60.7031 97.7344 53.9062 102.891 43.8281 102.891C34.6875 102.891 29.5312 98.2031 26.9531 92.5781L36.0938 87.6562Z" fill="black"/>
</g>
<defs>
<clipPath id="clip0_445_299">
<rect width="120" height="120" fill="white"/>
</clipPath>
</defs>
</svg>
