<svg width="30" height="32" viewBox="0 0 30 32" fill="none" xmlns="http://www.w3.org/2000/svg">
<path d="M14.9001 31.1732L15.0001 31.231L15.1001 31.1732L28.0905 23.6732L28.1905 23.6155V23.5L28.1905 8.50003V8.38456L28.0905 8.32683L15.1001 0.82683L15.0001 0.769094L14.9001 0.82683L1.90974 8.32683L1.80974 8.38456V8.50003L1.80974 23.5V23.6155L1.90974 23.6732L14.9001 31.1732Z" stroke="#73D6C3" stroke-width="0.4"/>
<path d="M14.0003 8.92859C12.7644 9.07117 11.7398 9.19825 11.7238 9.21375C11.6886 9.25094 10.0588 11.9723 10.0364 12.0312C10.0236 12.056 10.1421 12.6976 10.2958 13.4508L10.5743 14.827L11.6149 15.5647L12.6555 16.3024L13.5552 16.6867C14.0515 16.8975 14.7111 17.1795 15.0217 17.3097L15.5852 17.5484L15.947 18.314L16.3056 19.0764L15.963 19.6623C15.7741 19.9815 15.614 20.2512 15.6076 20.2574C15.5852 20.2791 13.8466 20.7564 13.7698 20.7595C13.7249 20.7626 13.0109 20.5301 12.1785 20.2481C10.9009 19.8141 10.5679 19.718 10.5679 19.78C10.5679 19.7831 10.3886 20.2574 10.1677 20.8308C9.94676 21.4073 9.76746 21.9094 9.76746 21.9497C9.76746 22.0148 9.79947 22.0334 10.062 22.1171C10.2253 22.1667 11.1571 22.4549 12.1336 22.7556L13.9075 23.3042L15.899 22.8176C16.9972 22.5479 17.9066 22.3216 17.9258 22.3093C17.961 22.2876 19.6964 19.281 19.7156 19.2035C19.7284 19.157 18.4509 15.9676 18.3708 15.8498C18.3484 15.8188 17.3558 15.3353 16.1616 14.7805L13.9875 13.767L13.6865 13.1315C13.52 12.7813 13.3439 12.4156 13.2991 12.3164L13.2159 12.1397L13.3727 11.9754C13.4592 11.8855 13.6417 11.6965 13.7826 11.5539L14.0323 11.2904L14.7976 11.1324L15.566 10.9712L16.85 11.5415C17.5576 11.8514 18.1627 12.1087 18.1947 12.1087C18.2652 12.1087 18.2748 12.087 18.7454 11.0487C18.9536 10.593 19.1169 10.1963 19.1105 10.1653C19.0945 10.0847 16.4785 8.67133 16.3473 8.67443C16.296 8.67443 15.2394 8.78911 14.0003 8.92859ZM16.1712 8.8449C16.1712 8.8604 15.9983 9.04327 15.7933 9.25404L15.4155 9.63838L14.0259 9.46171C13.2607 9.36252 12.5819 9.27264 12.521 9.26024C12.4442 9.24474 12.6875 9.20755 13.3535 9.13626C13.8722 9.08047 14.7015 8.98748 15.1946 8.93169C16.2704 8.81081 16.1712 8.81701 16.1712 8.8449ZM17.7401 9.54849C18.2588 9.83055 18.6718 10.063 18.659 10.063C18.6366 10.063 15.947 9.72207 15.6653 9.68487C15.6044 9.67558 15.6461 9.61978 15.9983 9.24784L16.4049 8.8232L16.6002 8.92859C16.7091 8.98748 17.2214 9.26644 17.7401 9.54849ZM13.8178 9.57019C14.6087 9.67248 15.2618 9.76236 15.2714 9.76856C15.2907 9.79026 14.6631 10.4381 14.6407 10.4226C14.6279 10.4164 14.106 10.1839 13.4816 9.90804C12.8572 9.63218 12.3385 9.39972 12.3321 9.39352C12.3097 9.37182 12.3481 9.37802 13.8178 9.57019ZM13.2383 9.95763C13.9267 10.2583 14.503 10.5155 14.519 10.5279C14.535 10.5434 14.4197 10.686 14.2468 10.8627L13.9459 11.1695L13.408 11.2873C13.1134 11.3493 12.8668 11.3989 12.8604 11.3927C12.8508 11.3803 11.9895 9.533 11.9543 9.44931C11.9447 9.43071 11.9479 9.41212 11.9607 9.41212C11.9735 9.41212 12.5467 9.65698 13.2383 9.95763ZM11.8807 10.5093C11.9511 11.0394 12.0088 11.4919 12.0088 11.5198C12.0088 11.5601 11.8423 11.6035 11.1699 11.7461C10.7056 11.8452 10.3118 11.9227 10.2894 11.9227C10.2701 11.9227 10.5647 11.402 10.9425 10.7666C11.7526 9.40902 11.7302 9.44311 11.743 9.5051C11.7462 9.5299 11.8102 9.98243 11.8807 10.5093ZM12.6972 11.4206C12.6875 11.433 12.1688 11.5477 12.1688 11.5384C12.1688 11.5384 12.1112 11.1448 12.0408 10.6674C11.9703 10.1901 11.9127 9.78406 11.9127 9.76856C11.9127 9.74996 12.092 10.1126 12.3129 10.5744C12.5307 11.0332 12.7068 11.4144 12.6972 11.4206ZM17.0389 9.98553C17.8874 10.0971 18.5886 10.1932 18.595 10.1994C18.6014 10.2025 17.9258 10.3482 17.0933 10.5186L15.5852 10.8317L15.2202 10.6705C15.0217 10.5837 14.8552 10.497 14.8552 10.4815C14.852 10.4474 15.4379 9.79026 15.47 9.78716C15.4796 9.78406 16.1872 9.87395 17.0389 9.98553ZM18.9248 10.3048C18.9248 10.3265 18.1915 11.9258 18.1723 11.9475C18.1659 11.9537 17.6376 11.7306 16.994 11.4516C16.3505 11.1726 15.8318 10.9402 15.8382 10.934C15.8478 10.9216 18.8063 10.2955 18.9023 10.2831C18.9151 10.28 18.9248 10.2893 18.9248 10.3048ZM15.1786 10.8007C15.2714 10.8441 15.3035 10.872 15.2746 10.8813C15.2234 10.8999 14.2565 11.1169 14.2308 11.1169C14.2212 11.1169 14.3237 10.9991 14.4582 10.8565L14.7047 10.5961L14.868 10.6674C14.9609 10.7077 15.0985 10.7666 15.1786 10.8007ZM13.7313 11.3927C13.7153 11.4361 13.1582 11.994 13.1454 11.9785C13.1198 11.9537 12.9373 11.5415 12.9469 11.5322C12.9597 11.5198 13.6385 11.371 13.6993 11.3679C13.7249 11.3648 13.7378 11.3772 13.7313 11.3927ZM12.9181 11.8452L13.0397 12.1056L12.9117 12.2544C12.8412 12.335 12.6811 12.4992 12.5595 12.6139L12.3385 12.8278L12.3193 12.7224C12.2777 12.5023 12.1913 11.7027 12.2073 11.6903C12.2297 11.6686 12.6171 11.588 12.7132 11.5849C12.7836 11.5818 12.8092 11.6159 12.9181 11.8452ZM12.0408 11.712C12.0408 11.7182 12.076 11.994 12.1208 12.3257C12.1656 12.6573 12.2009 12.9394 12.2009 12.9549C12.2009 12.9673 11.7782 12.772 11.2659 12.5209C10.7504 12.2699 10.3502 12.0622 10.3758 12.056C10.4847 12.0312 11.9959 11.712 12.0184 11.7089C12.0312 11.7058 12.0408 11.7089 12.0408 11.712ZM11.6053 12.8185L12.1432 13.0696L11.9575 13.2648C11.8519 13.3702 11.5253 13.7143 11.2275 14.0242C10.9297 14.3342 10.68 14.5852 10.6768 14.579C10.664 14.5697 10.2157 12.2575 10.2157 12.211C10.2157 12.1769 10.3918 12.2513 11.6053 12.8185ZM13.472 13.02C13.6353 13.3609 13.7666 13.6399 13.7602 13.6461C13.7474 13.6616 12.3962 13.0572 12.393 13.0355C12.393 13.0262 12.5531 12.8464 12.7516 12.6387C13.0942 12.2761 13.1134 12.2606 13.1422 12.3319C13.1614 12.3691 13.3087 12.6821 13.472 13.02ZM12.3578 14.0614C12.4186 14.5387 12.4602 14.9355 12.4538 14.9448C12.441 14.9541 10.8945 14.7278 10.8113 14.703C10.7824 14.6937 12.1945 13.2028 12.2361 13.1966C12.2457 13.1935 12.3001 13.5841 12.3578 14.0614ZM13.5584 13.736L13.8818 13.8909L14.1956 14.5542C14.3685 14.9169 14.5062 15.2206 14.4998 15.2237C14.4902 15.233 12.6427 14.9882 12.6267 14.9789C12.6235 14.9758 12.5755 14.6255 12.521 14.1978C12.4666 13.7732 12.4154 13.3733 12.4058 13.3113L12.3866 13.1935L12.8124 13.3888C13.0494 13.4942 13.3823 13.6492 13.5584 13.736ZM15.9534 14.8425C16.9524 15.3043 17.7689 15.6887 17.7625 15.6918C17.7529 15.7011 14.772 15.2764 14.7143 15.2578C14.6951 15.2516 14.583 15.0378 14.4614 14.7867C14.1188 14.0645 14.09 13.9994 14.1124 13.9994C14.1252 13.9994 14.9545 14.3776 15.9534 14.8425ZM11.7686 14.9944C12.156 15.0502 12.4794 15.0997 12.4826 15.1028C12.5018 15.1152 12.6203 15.9645 12.6107 16.0172C12.6011 16.0637 12.409 15.9366 11.2083 15.0781C11.0194 14.9417 10.9329 14.8673 10.9842 14.8766C11.029 14.8859 11.3812 14.9386 11.7686 14.9944ZM13.6897 15.2733C14.1828 15.3415 14.5862 15.4035 14.5894 15.4035C14.5894 15.4066 14.7912 15.8343 15.0409 16.3551C15.2874 16.8758 15.4828 17.3066 15.4796 17.3128C15.47 17.3221 12.8476 16.2404 12.8156 16.2156C12.8028 16.2032 12.6491 15.2423 12.6491 15.1679C12.6491 15.1276 12.6683 15.1183 12.7228 15.1307C12.7612 15.1369 13.1966 15.202 13.6897 15.2733ZM16.5234 15.6732C17.3783 15.794 18.0987 15.9025 18.1275 15.9149C18.1691 15.9335 18.0763 16.1071 17.6152 16.8696C17.3046 17.381 17.0293 17.8335 17.0004 17.8769L16.9492 17.9513L16.3441 17.7065C16.0111 17.5732 15.7229 17.4461 15.7037 17.4275C15.6749 17.4027 14.8808 15.7259 14.7687 15.4593C14.7559 15.4252 14.7752 15.419 14.8616 15.4345C14.9224 15.4438 15.6685 15.5523 16.5234 15.6732ZM18.1499 17.1671C18.1179 17.7003 18.0827 18.2024 18.0667 18.2799L18.0442 18.4255L17.5832 18.2272C17.3302 18.1187 17.1157 18.0257 17.1093 18.0164C17.0901 17.9978 18.1691 16.2001 18.2011 16.2001C18.2043 16.2001 18.1787 16.6371 18.1499 17.1671ZM18.9568 17.6538C19.2577 18.3945 19.4947 19.0052 19.4883 19.0145C19.4691 19.03 18.2844 18.534 18.2396 18.4937C18.2267 18.4813 18.2428 17.9885 18.2812 17.3872C18.3196 16.7952 18.3484 16.2807 18.3516 16.2466V16.1846L18.3836 16.2466C18.3996 16.2807 18.6558 16.913 18.9568 17.6538ZM16.8564 18.0908C16.8788 18.1125 16.4529 18.8471 16.3985 18.8812C16.3793 18.8905 15.819 17.7003 15.819 17.6507C15.819 17.629 16.8115 18.0505 16.8564 18.0908ZM17.5384 18.3605L18.0282 18.5681L18.025 18.8161C18.0218 18.9556 18.0122 19.1849 18.0026 19.3275L17.9802 19.5879L17.4519 19.7366C17.1605 19.8203 16.9076 19.8885 16.8884 19.8885C16.8532 19.8885 16.4913 19.1477 16.4913 19.0764C16.4913 19.03 17.0068 18.1528 17.0325 18.1528C17.0421 18.1528 17.2694 18.2458 17.5384 18.3605ZM18.8159 18.9029C19.1393 19.0392 19.3954 19.1632 19.3826 19.1756C19.3698 19.188 19.1009 19.2686 18.7871 19.3585C18.4765 19.4453 18.1979 19.5259 18.1691 19.5383C18.1243 19.5538 18.1211 19.5352 18.1339 19.405C18.1467 19.3213 18.1627 19.1167 18.1755 18.9494C18.1851 18.7851 18.2011 18.6487 18.2075 18.6487C18.2139 18.6487 18.4893 18.7634 18.8159 18.9029ZM16.5586 19.6034C16.661 19.8265 16.6995 19.9381 16.6739 19.9474C16.5298 19.997 15.8318 20.1892 15.8254 20.183C15.819 20.1768 15.9406 19.9629 16.0975 19.7087C16.2512 19.4515 16.3857 19.25 16.3921 19.2562C16.3985 19.2624 16.4753 19.4174 16.5586 19.6034ZM18.7519 20.6138C18.3452 21.336 18.0058 21.9218 18.0026 21.9156C17.9898 21.9094 18.1243 19.6932 18.1371 19.684C18.1467 19.6747 19.4242 19.3058 19.4563 19.3027C19.4787 19.3027 19.1617 19.8916 18.7519 20.6138ZM17.9802 19.8172C17.9738 19.8668 17.9418 20.3225 17.913 20.8339C17.8842 21.3453 17.8521 21.8009 17.8393 21.8505C17.8233 21.9218 17.7529 21.7916 17.3751 20.9889C17.1317 20.4681 16.9396 20.0342 16.946 20.0249C16.9652 20.0094 17.897 19.7428 17.9546 19.7366C17.9802 19.7335 17.9898 19.7645 17.9802 19.8172ZM11.3204 20.6138C11.6662 20.9703 11.9415 21.2647 11.9351 21.2709C11.9191 21.2864 9.94996 21.8443 9.94356 21.835C9.93075 21.8102 10.6448 19.9505 10.6672 19.9567C10.68 19.9629 10.9746 20.2574 11.3204 20.6138ZM12.2265 20.4154C12.9149 20.6448 13.4752 20.8339 13.472 20.837C13.4496 20.8587 12.1272 21.2244 12.1048 21.2151C12.0728 21.2027 10.9201 20.0156 10.9201 19.9939C10.9201 19.9846 10.9329 19.9815 10.9489 19.9877C10.9649 19.9908 11.5413 20.1861 12.2265 20.4154ZM17.263 21.0942C17.5255 21.6491 17.7337 22.1078 17.7241 22.114C17.7113 22.1295 15.2714 21.3205 15.2042 21.2802C15.1754 21.2616 15.5244 20.62 15.6685 20.434C15.7133 20.3751 16.645 20.0745 16.7443 20.0838C16.7699 20.0869 16.994 20.527 17.263 21.0942ZM15.4571 20.4681C15.4507 20.4836 15.3547 20.651 15.2458 20.8401C15.1338 21.0322 15.0249 21.1903 15.0025 21.1903C14.9801 21.1903 14.7399 21.1159 14.471 21.0229L13.9779 20.8556L14.202 20.7905C14.3269 20.7564 14.6343 20.6665 14.8904 20.589C15.3515 20.4526 15.4828 20.4247 15.4571 20.4681ZM14.3173 21.1314C14.6247 21.2368 14.8904 21.3298 14.9096 21.3422C14.9288 21.3515 14.7399 21.7017 14.4262 22.238L13.9075 23.112L13.0782 22.2597C12.6235 21.7885 12.2457 21.3949 12.2393 21.3825C12.2329 21.3577 13.6097 20.9486 13.7089 20.9455C13.7378 20.9424 14.0099 21.026 14.3173 21.1314ZM12.8636 22.2287C13.2895 22.6719 13.6321 23.0376 13.6257 23.0438C13.6193 23.05 12.822 22.8145 11.8551 22.52C10.8849 22.2225 10.1004 21.9745 10.1101 21.9652C10.1389 21.9373 11.9927 21.4104 12.044 21.4166C12.0696 21.4197 12.441 21.7854 12.8636 22.2287ZM16.3569 21.8164C17.0293 22.0427 17.58 22.2349 17.58 22.2442C17.58 22.2597 14.0804 23.1151 14.0675 23.1027C14.0547 23.0903 15.0889 21.4073 15.1081 21.4073C15.121 21.4073 15.6813 21.5902 16.3569 21.8164Z" fill="#73D6C3"/>
</svg>
