<svg width="120" height="120" viewBox="0 0 120 120" fill="none" xmlns="http://www.w3.org/2000/svg">
<path fill-rule="evenodd" clip-rule="evenodd" d="M74.0532 72.7908L71.7514 76.7877C71.058 77.9917 69.7743 78.7338 68.3849 78.7338H50.7518C49.3624 78.7338 48.0787 77.9917 47.3853 76.7877L45.0833 72.7908H74.0532ZM80.4971 61.6016L76.4385 68.6488H42.698L38.6396 61.6016H80.4971ZM76.5876 50.6601L80.5036 57.4599H38.6331L42.5491 50.6601H76.5876ZM68.3849 40.3165C69.7743 40.3165 71.058 41.0586 71.7514 42.2626L74.2023 46.5181H44.9344L47.3853 42.2626C48.0787 41.0586 49.3624 40.3165 50.7518 40.3165H68.3849Z" fill="#00435B"/>
<path d="M25.0888 38.4619C23.1355 28.9903 22.7163 21.7257 23.9789 16.4506C24.7298 13.3133 26.1027 10.7539 28.1903 8.90737C30.3942 6.95788 33.1806 6.00127 36.3115 6.00127C41.4765 6.00127 46.9063 8.35659 52.7089 12.8311C55.0757 14.6561 57.5321 16.8559 60.0831 19.4318C60.2862 19.1704 60.5157 18.9238 60.7714 18.6959C67.9838 12.2687 74.0559 8.27541 79.2495 6.73571C82.3376 5.82021 85.237 5.73299 87.8772 6.62152C90.6642 7.55942 92.8848 9.49819 94.4516 12.2138C97.0372 16.6955 97.7191 22.5845 96.7551 29.856C96.3622 32.8199 95.6904 36.0484 94.7413 39.5466C95.0994 39.5898 95.4584 39.6692 95.8137 39.787C104.965 42.8195 111.444 46.0805 115.367 49.8073C117.701 52.0247 119.226 54.4933 119.777 57.2258C120.358 60.11 119.791 63.003 118.226 65.7166C115.645 70.1918 110.9 73.7214 104.14 76.5171C101.425 77.6396 98.3536 78.6563 94.9221 79.5706C95.0786 79.9242 95.2001 80.2996 95.2813 80.6935C97.2347 90.1651 97.6538 97.4296 96.3913 102.705C95.6403 105.842 94.2674 108.401 92.1799 110.248C89.976 112.198 87.1895 113.154 84.0586 113.154C78.8936 113.154 73.4639 110.799 67.6613 106.324C65.2693 104.48 62.7858 102.253 60.2055 99.6413C59.94 100.057 59.6141 100.443 59.2286 100.786C52.0162 107.213 45.9441 111.207 40.7505 112.746C37.6624 113.662 34.763 113.749 32.1228 112.86C29.3358 111.923 27.1152 109.984 25.5484 107.268C22.9628 102.786 22.2809 96.8975 23.2449 89.6261C23.652 86.555 24.3585 83.1998 25.3627 79.555C24.9702 79.5152 24.576 79.4322 24.1863 79.3031C15.0354 76.2706 8.55563 73.0095 4.63262 69.2827C2.29852 67.0654 0.774333 64.5968 0.223349 61.8643C-0.358217 58.98 0.208855 56.0871 1.77376 53.3735C4.3546 48.8983 9.10001 45.3687 15.8605 42.573C18.6559 41.417 21.8297 40.3733 25.3856 39.438C25.259 39.1278 25.1589 38.8017 25.0888 38.4619Z" fill="#002B3B"/>
<path fill-rule="evenodd" clip-rule="evenodd" d="M48.59 35.4444C53.3335 35.0669 58.2228 34.9002 63.2577 34.9443C64.2113 34.9526 64.9911 34.1864 64.9994 33.2328C65.0029 32.8312 64.8663 32.4409 64.6131 32.1292C53.1532 18.0191 43.7169 10.964 36.3041 10.964C28.6512 10.964 26.4679 19.3998 29.7543 36.2715C29.9345 37.1963 30.8227 37.8059 31.7504 37.6415C37.6013 36.6046 43.2145 35.8722 48.59 35.4444Z" fill="#FF4154"/>
<path fill-rule="evenodd" clip-rule="evenodd" d="M75.2182 37.7669C77.9576 41.7143 80.5868 45.8946 83.1057 50.3078C83.5784 51.136 84.633 51.4242 85.4612 50.9515C85.8084 50.7533 86.0762 50.4406 86.2186 50.067C92.7011 33.0638 94.0635 21.3376 90.3057 14.8886C86.4281 8.23367 77.979 10.5348 64.9586 21.7919C64.2427 22.4109 64.1585 23.4907 64.7697 24.2132C68.6383 28.7862 72.1211 33.3041 75.2182 37.7669Z" fill="#FF4154"/>
<path fill-rule="evenodd" clip-rule="evenodd" d="M86.7158 61.521C84.6655 65.83 82.361 70.1607 79.8023 74.5131C79.3191 75.3352 79.5937 76.3933 80.4157 76.8766C80.7638 77.0812 81.1725 77.1574 81.5709 77.0919C99.4355 74.1546 110.223 69.4665 113.934 63.0275C117.766 56.3774 111.603 50.2821 95.4447 44.7418C94.5545 44.4366 93.5839 44.9004 93.2621 45.7848C91.2231 51.3887 89.041 56.6341 86.7158 61.521Z" fill="#FF4154"/>
<path fill-rule="evenodd" clip-rule="evenodd" d="M72.0575 83.8217C67.314 84.1992 62.4247 84.3659 57.3897 84.3218C56.4362 84.3135 55.6564 85.0797 55.6481 86.0333C55.6446 86.4349 55.7812 86.8252 56.0344 87.1369C67.4943 101.247 76.9306 108.302 84.3434 108.302C91.9963 108.302 94.1796 99.8663 90.8931 82.9946C90.713 82.0698 89.8248 81.4602 88.8971 81.6246C83.0462 82.6615 77.433 83.3939 72.0575 83.8217Z" fill="#FF4154"/>
<path fill-rule="evenodd" clip-rule="evenodd" d="M44.7819 81.7151C42.0424 77.7677 39.4133 73.5873 36.8943 69.1741C36.4216 68.3459 35.367 68.0578 34.5389 68.5305C34.1916 68.7287 33.9239 69.0413 33.7814 69.4149C27.299 86.4182 25.9366 98.1443 29.6943 104.593C33.572 111.248 42.021 108.947 55.0414 97.69C55.7573 97.0711 55.8416 95.9912 55.2304 95.2687C51.3618 90.6958 47.879 86.1779 44.7819 81.7151Z" fill="#FF4154"/>
<path fill-rule="evenodd" clip-rule="evenodd" d="M33.2842 57.3133C35.3345 53.0043 37.639 48.6736 40.1977 44.3211C40.681 43.4991 40.4063 42.4409 39.5843 41.9576C39.2362 41.753 38.8275 41.6769 38.4291 41.7424C20.5645 44.6796 9.77686 49.3678 6.06609 55.8068C2.23364 62.4569 8.39672 68.5521 24.5553 74.0924C25.4455 74.3976 26.4161 73.9338 26.7379 73.0495C28.7769 67.4456 30.959 62.2002 33.2842 57.3133Z" fill="#FF4154"/>
<path fill-rule="evenodd" clip-rule="evenodd" d="M52.1693 40.5323H66.9705C69.1351 40.5323 71.1344 41.6901 72.2119 43.5675L79.6437 56.5171C80.7128 58.38 80.7128 60.6703 79.6437 62.5332L72.2119 75.4828C71.1344 77.3602 69.1351 78.518 66.9705 78.518H52.1693C50.0047 78.518 48.0054 77.3602 46.928 75.4828L39.4961 62.5332C38.427 60.6703 38.427 58.38 39.4961 56.5171L46.928 43.5675C48.0054 41.6901 50.0047 40.5323 52.1693 40.5323ZM64.7147 44.4408C66.8804 44.4408 68.8806 45.5998 69.9576 47.4787L75.14 56.5199C76.207 58.3813 76.207 60.669 75.14 62.5304L69.9576 71.5716C68.8806 73.4505 66.8804 74.6095 64.7147 74.6095H54.4251C52.2594 74.6095 50.2592 73.4505 49.1822 71.5716L43.9998 62.5304C42.9328 60.669 42.9328 58.3813 43.9998 56.5199L49.1822 47.4787C50.2592 45.5998 52.2594 44.4408 54.4251 44.4408H64.7147ZM62.2832 48.7157H56.8566C54.6931 48.7157 52.6946 49.8723 51.6168 51.7483L48.8782 56.5145C47.8071 58.3787 47.8071 60.6716 48.8782 62.5358L51.6168 67.3021C52.6946 69.178 54.6931 70.3346 56.8566 70.3346H62.2832C64.4468 70.3346 66.4452 69.178 67.5231 67.3021L70.2616 62.5358C71.3327 60.6716 71.3327 58.3787 70.2616 56.5145L67.5231 51.7483C66.4452 49.8723 64.4468 48.7157 62.2832 48.7157ZM59.942 52.8074C62.1039 52.8074 64.1011 53.9623 65.1796 55.836L65.5678 56.5106C66.6419 58.3768 66.6419 60.6735 65.5678 62.5397L65.1796 63.2143C64.1011 65.088 62.1039 66.2429 59.942 66.2429H59.1978C57.0359 66.2429 55.0387 65.088 53.9602 63.2143L53.572 62.5397C52.4979 60.6735 52.4979 58.3768 53.572 56.5106L53.9602 55.836C55.0387 53.9623 57.0359 52.8074 59.1978 52.8074H59.942ZM59.5709 56.8381C58.6087 56.8381 57.7213 57.3502 57.2409 58.1816C56.7605 59.0129 56.7605 60.0374 57.2409 60.8687C57.7213 61.7001 58.6087 62.2122 59.5689 62.2122C60.5311 62.2122 61.4185 61.7001 61.8989 60.8687C62.3793 60.0374 62.3793 59.0129 61.8989 58.1816C61.4185 57.3502 60.5311 56.8381 59.5709 56.8381ZM37.7698 59.5252H42.6077H37.7698Z" fill="#FFD94C"/>
</svg>
