<svg width="120" height="120" viewBox="0 0 120 120" fill="none" xmlns="http://www.w3.org/2000/svg">
<path d="M70.0459 59.9097C70.0459 54.5307 65.5485 50.1694 60 50.1694C54.4523 50.1694 49.9541 54.5307 49.9541 59.9097C49.9541 65.2894 54.4523 69.6503 60 69.6503C65.5485 69.6503 70.0459 65.2894 70.0459 59.9097Z" fill="#53C1DE"/>
<path fill-rule="evenodd" clip-rule="evenodd" d="M92.6265 41.8264C94.7479 33.4679 97.4145 17.968 88.014 12.7131C78.6574 7.48106 66.4815 17.5066 60.0521 23.5244C53.6415 17.5666 41.1236 7.58388 31.7311 12.8555C22.3782 18.1051 25.2624 33.348 27.4309 41.7589C18.7062 44.1615 3.75 49.3365 3.75 59.9096C3.75 70.4527 18.6906 76.083 27.3637 78.4834C25.1872 86.9407 22.4473 101.966 31.8123 107.204C41.2399 112.474 53.7188 102.729 60.2078 96.6457C66.6784 102.699 78.7373 112.508 88.0958 107.255C97.4835 101.986 95.0385 86.694 92.8699 78.2344C101.277 75.8287 116.25 70.3211 116.25 59.9096C116.25 49.4381 101.214 44.2211 92.6265 41.8264ZM91.5608 73.7512C90.1369 69.381 88.215 64.7336 85.8641 59.9329C88.1081 55.2454 89.9554 50.658 91.3395 46.3159C97.6346 48.0855 111.444 52.1299 111.444 59.9096C111.444 67.7625 98.1923 71.8451 91.5608 73.7512ZM85.6875 103.222C78.705 107.141 68.3329 97.761 63.5542 93.3034C66.7245 89.9415 69.8925 86.0332 72.9844 81.6934C78.4234 81.2257 83.5612 80.4607 88.221 79.4164C89.7473 85.4002 92.7008 99.2861 85.6875 103.222ZM34.2136 103.167C27.2304 99.2625 30.4222 85.8547 32.0234 79.6249C36.6313 80.6134 41.7323 81.3244 47.184 81.753C50.2961 85.9995 53.556 89.9029 56.841 93.3214C52.7824 97.128 41.2294 107.089 34.2136 103.167ZM8.55559 59.9096C8.55559 52.0275 22.2828 48.0124 28.7214 46.2472C30.1294 50.6869 31.9761 55.329 34.2046 60.0233C31.9472 64.7873 30.0741 69.5029 28.6532 73.995C22.5138 72.291 8.55559 67.7966 8.55559 59.9096ZM34.1389 16.8883C41.1506 12.9531 52.0301 22.5369 56.6846 26.8505C53.4165 30.2533 50.1866 34.1272 47.1011 38.3494C41.8102 38.8249 36.7453 39.5884 32.0891 40.6114C30.3422 33.8277 27.1347 20.8192 34.1389 16.8883ZM76.4224 43.4141C80.0119 43.8532 83.451 44.4375 86.6801 45.1522C85.7108 48.165 84.5025 51.3154 83.0794 54.5449C81.0165 50.7499 78.8021 47.031 76.4224 43.4141ZM60.0536 30.1804C62.2702 32.5086 64.4902 35.1086 66.6743 37.9294C62.2444 37.7261 57.8074 37.7254 53.3775 37.9264C55.5634 35.1318 57.8025 32.5357 60.0536 30.1804ZM36.9619 54.5415C35.5623 51.3232 34.3649 48.159 33.3871 45.1031C36.5969 44.4067 40.02 43.8375 43.5863 43.4055C41.1997 47.0145 38.9891 50.7319 36.9619 54.5415ZM43.6886 76.7464C40.0046 76.3477 36.5297 75.8074 33.3209 75.1301C34.3141 72.0206 35.5379 68.7881 36.9674 65.5005C39.0225 69.3499 41.2669 73.1032 43.6886 76.7464ZM60.1868 89.9681C57.909 87.585 55.6369 84.9491 53.418 82.1141C57.873 82.2836 62.3366 82.284 66.7913 82.0912C64.6005 84.978 62.3884 87.6176 60.1868 89.9681ZM83.1251 65.3332C84.6289 68.6565 85.8964 71.8714 86.9033 74.9284C83.6411 75.6502 80.1195 76.2315 76.4089 76.6631C78.8063 72.9776 81.0559 69.201 83.1251 65.3332ZM70.3024 77.2279C63.4879 77.7 56.631 77.6947 49.8143 77.2665C45.9409 71.7806 42.4927 66.0112 39.5164 60.0217C42.4785 54.0446 45.9015 48.2865 49.7565 42.8092C56.5781 42.3094 63.4417 42.3079 70.2634 42.8122C74.0854 48.2891 77.5031 54.0322 80.5339 59.9554C77.5391 65.9295 74.0981 71.6992 70.3024 77.2279ZM85.6136 16.7497C92.6273 20.672 89.5054 34.6022 87.9731 40.6597C83.3059 39.6154 78.2374 38.8384 72.9311 38.3554C69.8396 34.0876 66.6367 30.2069 63.4215 26.8481C68.1356 22.4415 78.6679 12.8658 85.6136 16.7497Z" fill="#53C1DE"/>
</svg>
