<svg width="120" height="120" viewBox="0 0 120 120" fill="none" xmlns="http://www.w3.org/2000/svg">
<g clip-path="url(#clip0_445_315)">
<path d="M7.35536 57.4337C7.65526 57.3716 7.96412 57.3273 8.27298 57.3007L10.6722 57.0744L7.41355 53.5344C6.43326 52.4653 5.89164 51.0813 5.89164 49.6351H3.19696C3.19696 51.7467 3.98925 53.774 5.42611 55.3355L7.35536 57.4337Z" fill="#FBFCFE"/>
<path d="M15.7706 62.6195C15.5289 62.6639 15.2827 62.6949 15.0365 62.7215L12.4403 62.9655L15.69 66.4966C16.6703 67.5657 17.212 68.9498 17.212 70.3959H19.9111C19.9111 68.2844 19.1188 66.2615 17.682 64.6956L15.7706 62.6195Z" fill="#FBFCFE"/>
<path d="M20.2334 54.7721C19.7902 52.5896 18.0624 51.0014 15.8333 50.722L15.4215 50.6687C14.0294 50.4957 12.9775 49.3157 12.9775 47.9272V46.5033C14.2129 45.9931 15.0813 44.7865 15.0813 43.3803C15.0813 41.5127 13.5549 40 11.6704 40C9.78592 40 8.25953 41.5127 8.25953 43.3803C8.25953 44.7555 9.09211 45.9399 10.2828 46.4678V47.9272C10.2828 50.6643 12.3463 52.9844 15.0857 53.3215L15.4976 53.3747C16.7822 53.5344 17.4223 54.4749 17.5924 55.3C17.7625 56.1251 17.5432 57.2386 16.4197 57.8818C15.8691 58.1967 15.2737 58.3875 14.6426 58.4452L8.45201 59.0218C7.43143 59.1194 6.46457 59.4255 5.57829 59.9312C3.63114 61.0491 2.6598 63.1784 3.10742 65.361C3.55056 67.5435 5.27838 69.1316 7.50753 69.4111L7.91934 69.4643C9.31144 69.6374 10.3633 70.8173 10.3633 72.2058V73.5012C9.13239 74.0113 8.26849 75.2179 8.26849 76.6197C8.26849 78.4873 9.79487 80 11.6794 80C13.5638 80 15.0902 78.4873 15.0902 76.6197C15.0902 75.2401 14.2532 74.0512 13.058 73.5278V72.2058C13.058 69.4688 10.9945 67.1487 8.25506 66.8116L7.84325 66.7583C6.55857 66.5986 5.91848 65.6582 5.74838 64.8331C5.57829 64.008 5.79762 62.8945 6.92115 62.2513C7.47172 61.9363 8.06706 61.7456 8.6982 61.6879L14.8888 61.1112C15.9094 61.0136 16.8762 60.7076 17.7625 60.2018C19.7097 59.084 20.6765 56.9546 20.2334 54.7721Z" fill="#FBFCFE"/>
<path d="M66.8576 69.9435H57.7888C54.6644 69.9435 52.1219 67.4238 52.1219 64.3274V56.0941C52.1219 52.9977 54.6644 50.478 57.7888 50.478H62.6365C65.7609 50.478 68.3034 52.9977 68.3034 56.0941V57.3894C68.3034 59.7716 66.3473 61.7101 63.9435 61.7101H54.7181V64.3319C54.7181 66.0087 56.0968 67.375 57.7888 67.375H66.8531V69.9435H66.8576ZM54.7226 59.1372H63.948C64.9194 59.1372 65.7116 58.352 65.7116 57.3894V56.0941C65.7116 54.4173 64.333 53.0509 62.641 53.0509H57.7888C56.0968 53.0509 54.7181 54.4173 54.7181 56.0941V59.1372H54.7226Z" fill="#FBFCFE"/>
<path d="M111.387 52.0972H108.791V69.6285H111.387V52.0972Z" fill="#FBFCFE"/>
<path d="M100.201 69.9435H95.3531C92.2287 69.9435 89.6862 67.4238 89.6862 64.3274V56.0941C89.6862 52.9977 92.2287 50.478 95.3531 50.478H100.201C103.325 50.478 105.868 52.9977 105.868 56.0941V64.3319C105.863 67.4282 103.325 69.9435 100.201 69.9435ZM95.3531 53.0509C93.6611 53.0509 92.2824 54.4173 92.2824 56.0941V64.3319C92.2824 66.0087 93.6611 67.375 95.3531 67.375H100.201C101.893 67.375 103.271 66.0087 103.271 64.3319V56.0941C103.271 54.4173 101.893 53.0509 100.201 53.0509H95.3531Z" fill="#FBFCFE"/>
<path d="M117.004 46.5166H114.408V69.6329H117.004V46.5166Z" fill="#FBFCFE"/>
<path d="M111.387 46.6008H108.791V49.0096H111.387V46.6008Z" fill="#FBFCFE"/>
<path d="M81.2127 70.1564H76.365C73.2406 70.1564 70.6981 67.6367 70.6981 64.5404V56.3026C70.6981 53.2062 73.2406 50.6865 76.365 50.6865H81.2127C84.3371 50.6865 86.8796 53.2062 86.8796 56.3026V57.589H84.2834V56.3026C84.2834 54.6257 82.9047 53.2594 81.2127 53.2594H76.365C74.673 53.2594 73.2943 54.6257 73.2943 56.3026V64.5404C73.2943 66.2172 74.673 67.5835 76.365 67.5835H81.2127C82.9047 67.5835 84.2834 66.2172 84.2834 64.5404V63.2539H86.8796V64.5404C86.8796 67.6367 84.3371 70.1564 81.2127 70.1564Z" fill="#FBFCFE"/>
<path d="M48.2858 70.3915H45.6896V69.5042C45.6896 67.9694 45.1032 66.501 44.0334 65.3654L43.9976 65.3299L41.5446 62.2646L43.5813 60.6676L45.9671 63.6531C47.4621 65.2589 48.2813 67.3394 48.2813 69.5042V70.3915H48.2858Z" fill="#FBFCFE"/>
<path d="M34.799 70.3915L32.2028 70.3826L32.252 53.9958C32.2565 52.1149 33.8231 50.5889 35.7479 50.5889H35.7613C37.046 50.6022 38.2904 50.58 39.499 50.5623C40.721 50.5445 41.9833 50.5224 43.3037 50.5357C44.1677 50.5445 45.8104 50.753 47.1354 52.0528C48.0082 52.9045 48.5499 54.1023 48.6707 55.4242C48.7826 56.6841 48.5051 57.935 47.8829 58.9465C46.8131 60.6987 45.0316 61.302 44.3154 61.4794L42.4622 61.9452C41.0254 62.2912 39.6243 62.6417 38.2725 62.9788C37.1534 63.2583 36.0075 63.5467 34.8258 63.835L34.799 70.3915ZM35.7434 53.1618C35.2511 53.1663 34.8527 53.5433 34.8482 54.0047L34.8258 61.1822C35.7792 60.9471 36.7148 60.712 37.6279 60.4858C38.9842 60.1442 40.3897 59.7937 41.8356 59.4477L43.6753 58.9864C44.0781 58.8888 45.0808 58.5516 45.6538 57.6156C46.3565 56.4667 46.1954 54.7588 45.3001 53.8805C44.6018 53.1973 43.6484 53.113 43.2679 53.1086C41.9877 53.0953 40.7389 53.1175 39.5348 53.1352C38.3173 53.153 37.055 53.1751 35.7434 53.1618Z" fill="#FBFCFE"/>
</g>
<defs>
<clipPath id="clip0_445_315">
<rect width="114" height="40" fill="white" transform="translate(3 40)"/>
</clipPath>
</defs>
</svg>
