<svg width="120" height="120" viewBox="0 0 120 120" fill="none" xmlns="http://www.w3.org/2000/svg">
<path d="M59.8642 53.1974C55.1783 53.1974 51.7997 56.2534 51.7997 60.8375C51.7997 65.4215 55.6027 68.4776 60.2886 68.4776C63.1197 68.4776 65.6154 67.357 67.1604 65.4682L63.9134 63.5922C63.056 64.5302 61.753 65.0777 60.2886 65.0777C58.2555 65.0777 56.528 64.0166 55.8871 62.3188H67.7801C67.8735 61.8434 67.9287 61.3511 67.9287 60.8332C67.9287 56.2534 64.5501 53.1974 59.8642 53.1974ZM55.8489 59.3519C56.3795 57.6584 57.8311 56.593 59.8599 56.593C61.893 56.593 63.3447 57.6584 63.871 59.3519H55.8489ZM105.569 53.1974C100.883 53.1974 97.5042 56.2534 97.5042 60.8375C97.5042 65.4215 101.307 68.4776 105.993 68.4776C108.824 68.4776 111.32 67.357 112.865 65.4682L109.618 63.5922C108.761 64.5302 107.458 65.0777 105.993 65.0777C103.96 65.0777 102.233 64.0166 101.592 62.3188H113.485C113.578 61.8434 113.633 61.3511 113.633 60.8332C113.633 56.2534 110.255 53.1974 105.569 53.1974ZM101.558 59.3519C102.088 57.6584 103.54 56.593 105.569 56.593C107.602 56.593 109.053 57.6584 109.58 59.3519H101.558ZM84.9915 60.8375C84.9915 63.3842 86.6553 65.082 89.236 65.082C90.9847 65.082 92.2963 64.2883 92.9711 62.9937L96.2309 64.874C94.8812 67.1236 92.3514 68.4776 89.236 68.4776C84.5458 68.4776 81.1715 65.4215 81.1715 60.8375C81.1715 56.2534 84.5501 53.1974 89.236 53.1974C92.3514 53.1974 94.8769 54.5514 96.2309 56.801L92.9711 58.6813C92.2963 57.3867 90.9847 56.593 89.236 56.593C86.6596 56.593 84.9915 58.2908 84.9915 60.8375ZM120 48.5285V68.0531H116.18V48.5285H120ZM15.6834 46.4062L31.3667 73.5709H0L15.6834 46.4062ZM54.8939 48.5285L43.1324 68.902L31.371 48.5285H35.781L43.1324 61.2619L50.4839 48.5285H54.8939ZM79.8981 53.6219V57.7348C79.4737 57.6117 79.0238 57.5268 78.5399 57.5268C76.0739 57.5268 74.2954 59.2246 74.2954 61.7713V68.0531H70.4754V53.6219H74.2954V57.5268C74.2954 55.3706 76.8039 53.6219 79.8981 53.6219Z" fill="white"/>
</svg>
