<svg width="120" height="120" viewBox="0 0 120 120" fill="none" xmlns="http://www.w3.org/2000/svg">
<path d="M108.787 18.8625L87.165 8.45247C85.9439 7.86371 84.5699 7.66942 83.2335 7.89653C81.897 8.12364 80.6643 8.7609 79.7062 9.71997L8.925 74.25C8.06622 75.0292 7.55215 76.1177 7.49589 77.276C7.43963 78.4342 7.84578 79.5674 8.625 80.4262C8.71875 80.5275 8.8125 80.625 8.91375 80.715L14.6925 85.965C15.4476 86.6522 16.4196 87.0533 17.4396 87.0985C18.4596 87.1437 19.4633 86.8302 20.2763 86.2125L105.533 21.5625C106.176 21.0738 106.944 20.7746 107.749 20.6985C108.554 20.6225 109.364 20.7725 110.088 21.1319C110.812 21.4912 111.421 22.0455 111.848 22.7324C112.274 23.4194 112.5 24.2116 112.5 25.02V24.7687C112.5 23.5346 112.151 22.3256 111.495 21.2807C110.838 20.2359 109.9 19.3976 108.787 18.8625Z" fill="#0065A9"/>
<path d="M108.787 101.138L87.165 111.551C85.9436 112.138 84.5699 112.332 83.2339 112.105C81.8978 111.878 80.6652 111.241 79.7062 110.284L8.925 45.7501C8.06622 44.9708 7.55215 43.8823 7.49589 42.7241C7.43963 41.5658 7.84578 40.4326 8.625 39.5738C8.71875 39.4726 8.8125 39.3751 8.91375 39.2851L14.6925 34.0351C15.4484 33.3449 16.4226 32.9421 17.4451 32.8968C18.4677 32.8516 19.4736 33.1669 20.2875 33.7876L105.533 98.4376C106.176 98.9262 106.944 99.2254 107.749 99.3015C108.554 99.3776 109.364 99.2275 110.088 98.8682C110.812 98.5088 111.421 97.9545 111.848 97.2676C112.274 96.5807 112.5 95.7884 112.5 94.98V95.25C112.496 96.4809 112.146 97.6857 111.489 98.7269C110.833 99.768 109.896 100.603 108.787 101.138Z" fill="#007ACC"/>
<path d="M87.165 111.551C85.9436 112.138 84.57 112.332 83.2339 112.105C81.8978 111.878 80.6652 111.241 79.7063 110.284C80.2448 110.815 80.9282 111.176 81.6708 111.321C82.4135 111.465 83.1823 111.388 83.881 111.098C84.5798 110.807 85.1773 110.317 85.5987 109.689C86.0201 109.06 86.2467 108.322 86.25 107.565V12.435C86.2506 11.6748 86.0256 10.9315 85.6035 10.2994C85.1814 9.66717 84.5811 9.1745 83.8787 8.88376C83.1763 8.59301 82.4035 8.51727 81.658 8.66613C80.9126 8.81499 80.2281 9.18175 79.6913 9.71996C80.6495 8.76124 81.8819 8.12394 83.2181 7.8962C84.5543 7.66846 85.9283 7.86153 87.15 8.44871L108.769 18.8437C109.884 19.3762 110.827 20.2133 111.487 21.2583C112.147 22.3034 112.498 23.5138 112.5 24.75V95.25C112.5 96.4851 112.152 97.6952 111.494 98.7409C110.837 99.7865 109.897 100.625 108.784 101.16L87.165 111.551Z" fill="#1F9CF0"/>
</svg>
